# xmcd
#
# Track frame offsets:
#	150
#	17329
#	32482
#	49210
#	66402
#	82789
#	99143
#	115195
#	133347
#	150526
#	166182
#	182685
#	203089
#	221030
#	238583
#	252911
#	269339
#	286592
#
# Disc length: 4026 seconds
#
# Revision: 1
# Processed by: cddbd v1.5.2PL0 Copyright (c) Steve Scherf et al.
# Submitted via: audiograbber 1.83.01
#
DISCID=eb0fb812
DTITLE=Various Artist - Promo Only Country Radio 2010 - 12
DYEAR=2010
DGENRE=Country
TTITLE0=The Randy Rogers Band - Steal You Away
TTITLE1=Joey and Rory - That's Important to Me
TTITLE2=Kenny Chesney - Somewhere with You (Single Edit)
TTITLE3=Little Big Town - Kiss Goodbye
TTITLE4=Christian Kane - The House Rules (EP Version)
TTITLE5=Mark Cooke - Can't Cheat in A Small Town
TTITLE6=Josh Turner - I Wouldn't Be A Man
TTITLE7=Uncle Kracker ft. Kid Rock - Good to Be Me
TTITLE8=Billy Currington - Let Me Down Easy
TTITLE9=Lee Brice - Beautiful Every Time
TTITLE10=Elvis Presley - Suspicious Minds (2010 Viva Elvis Version)
TTITLE11=Jamey Johnson - Playing the Part
TTITLE12=The Harters - If I Run
TTITLE13=Gary Allan - Kiss Me When I'm Down
TTITLE14=Loretta Lynn, Sheryl Crow and Miranda Lambert - Coal Miner's Daughter
TTITLE15=Brett Eldredge - Raymond
TTITLE16=Sarah Darling - With or Without You
TTITLE17=The Judds - I Will Stand by You
EXTD=
EXTT0=
EXTT1=
EXTT2=
EXTT3=
EXTT4=
EXTT5=
EXTT6=
EXTT7=
EXTT8=
EXTT9=
EXTT10=
EXTT11=
EXTT12=
EXTT13=
EXTT14=
EXTT15=
EXTT16=
EXTT17=
PLAYORDER=
